<?xml version="1.0" standalone="no"?><!DOCTYPE svg PUBLIC "-//W3C//DTD SVG 1.1//EN" "http://www.w3.org/Graphics/SVG/1.1/DTD/svg11.dtd"><svg t="1583833405493" class="icon" viewBox="0 0 1024 1024" version="1.1" xmlns="http://www.w3.org/2000/svg" p-id="8246" xmlns:xlink="http://www.w3.org/1999/xlink" width="64" height="64"><defs><style type="text/css"></style></defs><path d="M987.642182 581.007572c-20.934881-4.910651-41.611307 8.012115-46.521958 28.946996-26.362443 112.944977-94.853104 209.090358-193.324584 270.344271-98.213024 61.253912-214.776376 80.638062-327.721353 54.534074-112.944977-26.362443-209.090358-94.853104-270.34427-193.324584-61.253912-98.213024-80.638062-214.776376-54.534074-327.721353C121.299931 300.841999 189.790592 204.696618 288.262071 143.442706c98.471479-61.253912 215.034831-80.638062 327.979808-54.534074 111.911156 25.845533 210.899546 96.662292 271.378092 194.61686 11.113579 18.350328 34.891469 24.036345 53.241797 12.664311 18.350328-11.113579 23.77789-34.891469 12.664311-53.241797-35.666835-57.893993-81.671883-107.25896-136.981322-146.802625-55.050984-39.80212-116.563352-67.45684-182.727916-82.705704C500.712349-17.316507 363.472571 5.427562 247.42613 77.795053c-116.046441 72.367491-196.942958 185.312468-227.957598 318.416961C-11.287651 529.316507 11.456417 666.556285 83.823909 782.602726S269.394832 979.545684 402.499325 1010.560323c38.768299 9.045936 77.795053 13.439677 116.563352 13.439677 94.594649 0 187.638566-26.620899 269.82736-77.795053 116.046441-72.367491 196.942958-185.570924 227.699142-318.675416 4.910651-20.934881-8.012115-41.611307-28.946997-46.521959z" p-id="8247" fill="#ffffff"></path><path d="M695.329209 432.39576c8.787481 19.384149 31.53155 28.17163 51.174154 19.384149 19.384149-8.787481 28.17163-31.53155 19.38415-51.174154-61.253912-136.464412-222.27158-197.718324-358.735992-136.464412-136.464412 61.253912-197.718324 222.27158-136.464412 358.735992 44.971227 100.539122 144.218072 160.242302 247.858657 160.242302 36.959112 0 74.693589-7.495204 111.13579-24.036346 65.647653-29.205452 117.597173-84.773347 142.925795-151.971731 7.495204-19.90106-2.584553-42.386673-22.744068-49.881878-19.90106-7.495204-42.386673 2.584553-49.881878 22.744069-18.091873 48.072691-55.30944 87.616355-102.089854 108.551236-13.439677 5.944472-27.137809 10.338213-41.094397 13.181222V322.035336c59.18627 11.888945 111.911156 51.174154 138.532055 110.360424z m-353.566885 158.69157c-43.67895-97.437658 0-212.450278 97.437657-256.129228 12.1474-5.427562 24.811711-9.562847 37.476022-12.405856v378.378597c-57.635538-12.922766-108.809692-51.94952-134.913679-109.843513z" p-id="8248" fill="#ffffff"></path></svg>