<?xml version="1.0" standalone="no"?><!DOCTYPE svg PUBLIC "-//W3C//DTD SVG 1.1//EN" "http://www.w3.org/Graphics/SVG/1.1/DTD/svg11.dtd"><svg t="1583832555435" class="icon" viewBox="0 0 1024 1024" version="1.1" xmlns="http://www.w3.org/2000/svg" p-id="3087" xmlns:xlink="http://www.w3.org/1999/xlink" width="64" height="64"><defs><style type="text/css"></style></defs><path d="M926.67749 871.172966c-9.285318-67.555125-51.864714-232.786098-245.505061-298.049693 39.848778-50.937885 64.442585-120.509653 64.442585-197.123862 0-155.761993-101.614263-282.477264-226.530611-282.477264-124.91878 0-226.553721 126.715272-226.553721 282.477264 0 71.942358 21.692905 137.675449 57.335681 187.601363-70.240739 18.19966-127.268693 50.526772-169.822547 97.396097-67.349568 74.10131-80.416396 163.329879-82.255459 210.176095L96.648674 930.300272h830.685624l-0.656808-59.127306zM519.085619 149.645165c93.961235 0 170.407592 101.547366 170.407593 226.354246 0 124.810529-76.446358 226.355462-170.407593 226.355462-93.985561 0-170.430702-101.544933-170.430702-226.355462 0-124.80688 76.445141-226.354246 170.430702-226.354246zM153.956379 871.172966c1.841495-38.758964 13.043718-112.398076 67.611075-172.444914 40.696547-44.804029 98.57227-73.886023 172.256385-87.474648 35.904282 29.819079 78.98115 47.225704 125.26178 47.225704 42.597641 0 82.481692-14.745337 116.55421-40.343817 184.604373 47.960356 225.765551 190.581325 234.915859 253.037675H153.956379z" fill="#ffffff" p-id="3088"></path></svg>