<svg t="1578125834513" class="icon" viewBox="0 0 1080 1024" version="1.1" xmlns="http://www.w3.org/2000/svg" p-id="14899" width="200" height="200"><path d="M948.224 0l-401.408 411.136-163.84-154.112L250.88 389.12l295.936 286.208L1080.32 132.096 948.224 0z m-34.304 486.4h107.52v363.52c0 94.72-76.8 171.52-171.52 171.52H174.08C79.36 1021.44 2.56 944.64 2.56 849.92V174.08C2.56 79.36 79.36 2.56 174.08 2.56h424.96v107.52H174.08c-35.328 0-64 28.672-64 64v675.84c0 35.328 28.672 64 64 64h675.84c35.328 0 64-28.672 64-64V486.4z" p-id="14900" fill="#e6e6e6"></path></svg>